<?xml version="1.0" encoding="iso-8859-1"?>
<!-- Generator: Adobe Illustrator 19.0.0, SVG Export Plug-In . SVG Version: 6.00 Build 0)  -->
<svg version="1.1" id="Layer_1" xmlns="http://www.w3.org/2000/svg" xmlns:xlink="http://www.w3.org/1999/xlink" x="0px" y="0px"
	 viewBox="0 0 512 512" style="enable-background:new 0 0 512 512;" xml:space="preserve">
<polygon style="fill:#FD7052;" points="381.377,469.671 30.333,469.671 89.652,247.641 172.492,247.641 186.681,290.555 
	225.029,290.555 239.219,247.641 322.058,247.641 "/>
<path style="fill:#FFDBA8;" d="M326.374,119.641c0,65.975-53.666,119.641-119.641,119.641c-0.293,0-0.585,0-0.878-0.01
	c-65.578-0.47-118.763-53.948-118.763-119.63S140.278,0.481,205.855,0.01C206.148,0,206.44,0,206.733,0
	C272.708,0,326.374,53.666,326.374,119.641z"/>
<path style="fill:#FFC473;" d="M206.733,239.282c-0.293,0-0.585,0-0.878-0.01V0.01C206.148,0,206.44,0,206.733,0
	c65.975,0,119.641,53.666,119.641,119.641S272.708,239.282,206.733,239.282z"/>
<rect x="161.238" y="67.396" style="fill:#57555C;" width="31.347" height="31.347"/>
<rect x="218.708" y="67.396" style="fill:#3C3A41;" width="31.347" height="31.347"/>
<rect x="175.208" y="144.509" style="fill:#FD7052;" width="61.304" height="31.347"/>
<g>
	<rect x="205.845" y="144.509" style="fill:#FF4F18;" width="30.657" height="31.347"/>
	<polygon style="fill:#FF4F18;" points="381.377,469.671 205.855,469.671 205.855,290.555 225.029,290.555 239.219,247.641 
		322.058,247.641 	"/>
</g>
<path style="fill:#67BFFF;" d="M481.667,406.601c0,58.211-47.188,105.399-105.399,105.399c-0.251,0-0.502,0-0.752-0.01
	c-28.473-0.188-54.251-11.682-73.101-30.208c-16.927-16.635-28.264-38.933-30.929-63.843c-0.397-3.72-0.616-7.502-0.616-11.337
	c0-31.587,13.908-59.925,35.913-79.245c0.24-0.209,0.481-0.418,0.721-0.616c8.579-7.398,18.369-13.427,29.017-17.774
	c12.048-4.901,25.203-7.659,38.996-7.743c0.251-0.01,0.502-0.01,0.752-0.01C434.479,301.213,481.667,348.39,481.667,406.601z"/>
<path style="fill:#0088FF;" d="M481.667,406.601c0,58.211-47.188,105.399-105.399,105.399c-0.251,0-0.502,0-0.752-0.01V301.223
	c0.251-0.01,0.502-0.01,0.752-0.01C434.479,301.213,481.667,348.39,481.667,406.601z"/>
<polygon style="fill:#FFFFFF;" points="431.731,391.952 431.731,423.299 391.941,423.299 391.941,465.157 360.594,465.157 
	360.594,423.299 320.805,423.299 320.805,391.952 360.594,391.952 360.594,350.103 391.941,350.103 391.941,391.952 "/>
<polygon style="fill:#D9D8DB;" points="431.731,391.952 431.731,423.299 391.941,423.299 391.941,465.157 375.515,465.157 
	375.515,350.103 391.941,350.103 391.941,391.952 "/>
<g>
</g>
<g>
</g>
<g>
</g>
<g>
</g>
<g>
</g>
<g>
</g>
<g>
</g>
<g>
</g>
<g>
</g>
<g>
</g>
<g>
</g>
<g>
</g>
<g>
</g>
<g>
</g>
<g>
</g>
</svg>
